<svg xmlns="http://www.w3.org/2000/svg" viewBox="0 0 460 80" width="460" height="80"
     role="img" aria-label="RxShift — Horizontal Lockup, Light">
  <defs>
    <style>
      @import url('https://fonts.googleapis.com/css2?family=Space+Grotesk:wght@500;700;800&amp;display=swap');
      text { font-family: 'Space Grotesk', 'DM Sans', -apple-system, 'Helvetica Neue', sans-serif; }
    </style>
  </defs>

  <!-- Grid mark -->
  <rect x="0"  y="0"  width="22" height="22" rx="4" fill="#C4D2E2"/>
  <rect x="29" y="0"  width="22" height="22" rx="4" fill="#8FAABB"/>
  <rect x="58" y="0"  width="22" height="22" rx="4" fill="#F07C30"/>
  <rect x="87" y="0"  width="22" height="22" rx="4" fill="#C4D2E2"/>
  <rect x="0"  y="29" width="22" height="22" rx="4" fill="#C4D2E2"/>
  <rect x="29" y="29" width="22" height="22" rx="4" fill="#8FAABB"/>
  <rect x="58" y="29" width="22" height="22" rx="4" fill="#F07C30"/>
  <rect x="87" y="29" width="22" height="22" rx="4" fill="#C4D2E2"/>
  <rect x="0"  y="58" width="22" height="22" rx="4" fill="#C4D2E2"/>
  <rect x="29" y="58" width="22" height="22" rx="4" fill="#8FAABB"/>
  <rect x="58" y="58" width="22" height="22" rx="4" fill="#F07C30"/>
  <rect x="87" y="58" width="22" height="22" rx="4" fill="#C4D2E2"/>

  <!-- Wordmark: Rx · Shift -->
  <text x="127" y="50" font-size="36" letter-spacing="-0.3">
    <tspan font-weight="800" fill="#1C2F5E">Rx</tspan>
    <tspan font-weight="700" fill="#F07C30"> · </tspan>
    <tspan font-weight="500" fill="#1C2F5E">Shift</tspan>
  </text>
</svg>
