<svg xmlns="http://www.w3.org/2000/svg" viewBox="0 0 32 32" width="32" height="32">
  <rect width="32" height="32" rx="6" fill="#1C2F5E"/>
  <rect x="3"  y="7"  width="5" height="5" rx="1" fill="#C4D2E2"/>
  <rect x="10" y="7"  width="5" height="5" rx="1" fill="#8FAABB"/>
  <rect x="17" y="7"  width="5" height="5" rx="1" fill="#F07C30"/>
  <rect x="24" y="7"  width="5" height="5" rx="1" fill="#C4D2E2"/>
  <rect x="3"  y="14" width="5" height="5" rx="1" fill="#C4D2E2"/>
  <rect x="10" y="14" width="5" height="5" rx="1" fill="#8FAABB"/>
  <rect x="17" y="14" width="5" height="5" rx="1" fill="#F07C30"/>
  <rect x="24" y="14" width="5" height="5" rx="1" fill="#C4D2E2"/>
  <rect x="3"  y="21" width="5" height="5" rx="1" fill="#C4D2E2"/>
  <rect x="10" y="21" width="5" height="5" rx="1" fill="#8FAABB"/>
  <rect x="17" y="21" width="5" height="5" rx="1" fill="#F07C30"/>
  <rect x="24" y="21" width="5" height="5" rx="1" fill="#C4D2E2"/>
</svg>
